<svg width="158" height="48" viewBox="0 0 158 48" fill="none" xmlns="http://www.w3.org/2000/svg">
<g clip-path="url(#clip0_1_490)">
<path fill-rule="evenodd" clip-rule="evenodd" d="M14.8597 2.73934C12.1225 4.22724 9.88316 5.4863 9.88363 5.53751C9.88485 5.66968 16.4529 9.14077 16.686 9.13231C16.7921 9.1286 17.5614 8.75908 18.3955 8.31124L19.9123 7.49714L21.5688 8.38568L23.2252 9.27438L25.938 8.00238C30.0255 6.08567 30.4501 5.87563 30.3835 5.80506C30.2952 5.71144 28.8291 4.88954 24.8514 2.70428C22.929 1.64812 21.0632 0.612591 20.705 0.403051C20.3469 0.193512 20.005 0.0249515 19.9452 0.0282143C19.8855 0.0314771 17.5969 1.2515 14.8597 2.73934ZM2.8545 9.2266L0.00514058 10.7624V17.503C0.00514058 21.2103 0.0425555 24.2435 0.0884497 24.2435C0.134185 24.2435 1.53608 23.6093 3.20369 22.8343L6.23573 21.4251V14.3201L7.71738 15.1624C8.85913 15.811 10.0016 16.4582 11.1447 17.104L13.0902 18.2033L13.956 17.7948C14.4989 17.5382 15.0408 17.279 15.5816 17.0174C15.9994 16.8144 17.0252 16.3322 17.861 15.9459C18.6968 15.5593 19.4705 15.1706 19.5802 15.082C19.7259 14.9643 17.9489 13.9395 13.0074 11.2916C9.28261 9.29556 6.11554 7.6688 5.96948 7.67659C5.82343 7.68439 4.42169 8.38181 2.8545 9.2266ZM30.897 9.6579C28.9564 10.5721 27.3673 11.3566 27.3655 11.4014C27.3638 11.446 28.4215 12.1023 29.7161 12.8595C31.0106 13.6169 32.0697 14.277 32.0697 14.3267C32.0697 14.3763 30.9242 14.9555 29.5244 15.614C28.1243 16.2724 24.5855 17.9401 21.6602 19.32L11.8584 23.9434C9.39279 25.1065 7.17031 26.1549 6.91959 26.2734C1.88341 28.6524 0.499166 29.3126 0.309071 29.4259C0.117915 29.54 0.0746179 30.2028 0.0405947 33.5293L0 37.4969L2.54803 38.8517L5.09601 40.2065L8.62918 38.5425C10.5725 37.6274 12.1623 36.8308 12.1623 36.7721C12.1623 36.7136 11.8032 36.4694 11.3645 36.2293C10.9256 35.9892 10.0196 35.4576 9.35098 35.0478C8.68238 34.638 8.0157 34.262 7.86932 34.2121C7.723 34.1624 7.6054 34.0754 7.60779 34.0187C7.61023 33.9621 9.16607 33.1909 11.065 32.3048C14.7534 30.584 17.576 29.2577 23.6357 26.398C26.3454 25.1196 29.0554 23.8419 31.7658 22.5651C34.1479 21.4431 36.9174 20.1327 37.9204 19.6531L39.744 18.7812L39.7845 14.7684L39.8253 10.7558L37.2409 9.3716C35.8195 8.61037 34.6045 7.98938 34.5408 7.99165C34.4772 7.99375 32.8375 8.74348 30.897 9.6579ZM39.0516 24.1344C38.6708 24.3285 37.9185 24.692 37.38 24.942C36.8415 25.192 35.8195 25.6732 35.109 26.0115L33.8173 26.6263L33.7878 30.1491C33.7716 32.0866 33.7032 33.6633 33.6359 33.6531C33.483 33.6293 31.0621 32.3337 28.6285 30.973C26.8721 29.991 26.7617 29.9519 26.349 30.1652C26.1104 30.2886 24.6843 30.956 23.1798 31.6487C21.6753 32.3412 20.3954 32.9531 20.3352 33.0085C20.2751 33.0638 23.303 34.7764 27.064 36.8143L33.902 40.5197L36.8231 38.9429C38.4295 38.0758 39.7955 37.2848 39.8584 37.1853C40 36.9616 39.9879 23.7508 39.8461 23.7687C39.79 23.7757 39.4324 23.9403 39.0516 24.1344ZM22.8759 39.6406C22.3692 39.8679 21.8627 40.0956 21.3562 40.3235C19.827 41.0139 20.1267 41.0368 18.3073 40.0917C17.0956 39.4623 16.5733 39.268 16.3466 39.3623C16.1765 39.433 14.7129 40.1201 13.0939 40.8892C11.475 41.6583 10.0942 42.2875 10.0256 42.2875C9.34631 42.2875 10.4755 42.9916 14.833 45.2853L19.9433 47.975L22.0934 46.8673C23.276 46.258 25.6612 45.038 27.3941 44.1562C29.1268 43.2741 30.5231 42.5296 30.4969 42.5015C30.4706 42.4735 29.0187 41.6955 27.2704 40.7726L24.0916 39.0949L22.8759 39.6406Z" fill="#05A3C9"/>
</g>
<path d="M52.8409 32H46.125V14.5455H52.7727C54.5682 14.5455 56.1193 14.8949 57.4261 15.5938C58.7386 16.2869 59.75 17.2869 60.4602 18.5938C61.1761 19.8949 61.5341 21.4545 61.5341 23.2727C61.5341 25.0909 61.179 26.6534 60.4688 27.9602C59.7585 29.2614 58.7528 30.2614 57.4517 30.9602C56.1506 31.6534 54.6136 32 52.8409 32ZM50.8636 27.9773H52.6705C53.5341 27.9773 54.2699 27.8381 54.8778 27.5597C55.4915 27.2812 55.9574 26.8011 56.2756 26.1193C56.5994 25.4375 56.7614 24.4886 56.7614 23.2727C56.7614 22.0568 56.5966 21.108 56.267 20.4261C55.9432 19.7443 55.4659 19.2642 54.8352 18.9858C54.2102 18.7074 53.4432 18.5682 52.5341 18.5682H50.8636V27.9773ZM63.7266 32V14.5455H76.3061V18.3636H68.4652V21.3636H75.6584V25.1818H68.4652V28.1818H76.272V32H63.7266ZM83.7358 14.5455L86.5994 19.625H86.7358L89.6335 14.5455H94.9176L89.7017 23.2727L95.1222 32H89.7017L86.7358 26.8182H86.5994L83.6335 32H78.2472L83.5994 23.2727L78.4176 14.5455H83.7358ZM96.4837 18.3636V14.5455H111.654V18.3636H106.404V32H101.734V18.3636H96.4837ZM124.335 26.1818C124.335 27.4773 124.083 28.5701 123.58 29.4602C123.076 30.3466 122.396 31.0189 121.54 31.4773C120.684 31.9318 119.729 32.1591 118.676 32.1591C117.616 32.1591 116.657 31.9299 115.801 31.4716C114.949 31.0095 114.271 30.3352 113.767 29.4489C113.267 28.5587 113.017 27.4697 113.017 26.1818C113.017 24.8864 113.267 23.7955 113.767 22.9091C114.271 22.0189 114.949 21.3466 115.801 20.892C116.657 20.4337 117.616 20.2045 118.676 20.2045C119.729 20.2045 120.684 20.4337 121.54 20.892C122.396 21.3466 123.076 22.0189 123.58 22.9091C124.083 23.7955 124.335 24.8864 124.335 26.1818ZM121.085 26.1818C121.085 25.4848 120.992 24.8977 120.807 24.4205C120.625 23.9394 120.354 23.5758 119.994 23.3295C119.638 23.0795 119.199 22.9545 118.676 22.9545C118.153 22.9545 117.712 23.0795 117.352 23.3295C116.996 23.5758 116.725 23.9394 116.54 24.4205C116.358 24.8977 116.267 25.4848 116.267 26.1818C116.267 26.8788 116.358 27.4678 116.54 27.9489C116.725 28.4261 116.996 28.7898 117.352 29.0398C117.712 29.286 118.153 29.4091 118.676 29.4091C119.199 29.4091 119.638 29.286 119.994 29.0398C120.354 28.7898 120.625 28.4261 120.807 27.9489C120.992 27.4678 121.085 26.8788 121.085 26.1818ZM137.07 26.1818C137.07 27.4773 136.818 28.5701 136.314 29.4602C135.81 30.3466 135.13 31.0189 134.274 31.4773C133.418 31.9318 132.464 32.1591 131.411 32.1591C130.35 32.1591 129.392 31.9299 128.536 31.4716C127.683 31.0095 127.005 30.3352 126.501 29.4489C126.001 28.5587 125.751 27.4697 125.751 26.1818C125.751 24.8864 126.001 23.7955 126.501 22.9091C127.005 22.0189 127.683 21.3466 128.536 20.892C129.392 20.4337 130.35 20.2045 131.411 20.2045C132.464 20.2045 133.418 20.4337 134.274 20.892C135.13 21.3466 135.81 22.0189 136.314 22.9091C136.818 23.7955 137.07 24.8864 137.07 26.1818ZM133.82 26.1818C133.82 25.4848 133.727 24.8977 133.541 24.4205C133.359 23.9394 133.089 23.5758 132.729 23.3295C132.373 23.0795 131.933 22.9545 131.411 22.9545C130.888 22.9545 130.446 23.0795 130.087 23.3295C129.731 23.5758 129.46 23.9394 129.274 24.4205C129.092 24.8977 129.001 25.4848 129.001 26.1818C129.001 26.8788 129.092 27.4678 129.274 27.9489C129.46 28.4261 129.731 28.7898 130.087 29.0398C130.446 29.286 130.888 29.4091 131.411 29.4091C131.933 29.4091 132.373 29.286 132.729 29.0398C133.089 28.7898 133.359 28.4261 133.541 27.9489C133.727 27.4678 133.82 26.8788 133.82 26.1818ZM138.531 32V20.3636H141.69V29.4545H146.395V32H138.531ZM153.945 24C153.914 23.6212 153.772 23.3258 153.518 23.1136C153.268 22.9015 152.888 22.7955 152.376 22.7955C152.051 22.7955 151.784 22.8352 151.575 22.9148C151.371 22.9905 151.219 23.0947 151.121 23.2273C151.022 23.3598 150.971 23.5114 150.967 23.6818C150.96 23.822 150.984 23.9489 151.041 24.0625C151.102 24.1723 151.196 24.2727 151.325 24.3636C151.454 24.4508 151.619 24.5303 151.82 24.6023C152.02 24.6742 152.259 24.7386 152.536 24.7955L153.49 25C154.134 25.1364 154.685 25.3163 155.143 25.5398C155.602 25.7633 155.977 26.0265 156.268 26.3295C156.56 26.6288 156.774 26.9659 156.911 27.3409C157.051 27.7159 157.123 28.125 157.126 28.5682C157.123 29.3333 156.931 29.9811 156.553 30.5114C156.174 31.0417 155.632 31.4451 154.928 31.7216C154.227 31.9981 153.384 32.1364 152.399 32.1364C151.388 32.1364 150.505 31.9867 149.751 31.6875C149.001 31.3883 148.418 30.928 148.001 30.3068C147.589 29.6818 147.38 28.8826 147.376 27.9091H150.376C150.395 28.2652 150.484 28.5644 150.643 28.8068C150.803 29.0492 151.026 29.233 151.314 29.358C151.606 29.483 151.952 29.5455 152.354 29.5455C152.691 29.5455 152.973 29.5038 153.2 29.4205C153.428 29.3371 153.6 29.2216 153.717 29.0739C153.835 28.9261 153.895 28.7576 153.899 28.5682C153.895 28.3902 153.837 28.2348 153.723 28.1023C153.613 27.9659 153.431 27.8447 153.178 27.7386C152.924 27.6288 152.581 27.5265 152.149 27.4318L150.99 27.1818C149.96 26.9583 149.147 26.5852 148.553 26.0625C147.962 25.536 147.668 24.8182 147.672 23.9091C147.668 23.1705 147.865 22.5246 148.263 21.9716C148.664 21.4148 149.219 20.9811 149.928 20.6705C150.64 20.3598 151.456 20.2045 152.376 20.2045C153.316 20.2045 154.128 20.3617 154.814 20.6761C155.5 20.9905 156.028 21.4337 156.399 22.0057C156.774 22.5739 156.964 23.2386 156.967 24H153.945Z" fill="black"/>
<defs>
<clipPath id="clip0_1_490">
<rect width="40" height="48" fill="white"/>
</clipPath>
</defs>
</svg>
